<mxfile host="app.diagrams.net" agent="Mozilla/5.0 (Windows NT 10.0; Win64; x64) AppleWebKit/537.36 (KHTML, like Gecko) Chrome/137.0.0.0 Safari/537.36 Edg/137.0.0.0" version="27.1.6">
  <diagram name="Page-1" id="OwzUoeJzE4SLYkK_Fc3U">
    <mxGraphModel grid="1" page="1" gridSize="10" guides="1" tooltips="1" connect="1" arrows="1" fold="1" pageScale="1" pageWidth="850" pageHeight="1100" background="#ffffff" math="0" shadow="1">
      <root>
        <mxCell id="0" />
        <mxCell id="1" parent="0" />
        <mxCell id="93EdfNO_k3NsiEWzLQrk-3" value="Professor" style="whiteSpace=wrap;html=1;align=center;" vertex="1" parent="1">
          <mxGeometry x="270" y="130" width="100" height="40" as="geometry" />
        </mxCell>
        <mxCell id="93EdfNO_k3NsiEWzLQrk-4" value="Student" style="whiteSpace=wrap;html=1;align=center;" vertex="1" parent="1">
          <mxGeometry x="495" y="390" width="100" height="40" as="geometry" />
        </mxCell>
        <mxCell id="93EdfNO_k3NsiEWzLQrk-5" value="Project" style="whiteSpace=wrap;html=1;align=center;" vertex="1" parent="1">
          <mxGeometry x="720" y="140" width="100" height="40" as="geometry" />
        </mxCell>
        <mxCell id="93EdfNO_k3NsiEWzLQrk-8" value="SSN" style="ellipse;whiteSpace=wrap;html=1;align=center;fontStyle=4;" vertex="1" parent="1">
          <mxGeometry x="130" y="60" width="100" height="40" as="geometry" />
        </mxCell>
        <mxCell id="93EdfNO_k3NsiEWzLQrk-9" value="research&amp;nbsp; specialty" style="ellipse;whiteSpace=wrap;html=1;align=center;" vertex="1" parent="1">
          <mxGeometry x="390" y="10" width="100" height="40" as="geometry" />
        </mxCell>
        <mxCell id="93EdfNO_k3NsiEWzLQrk-10" value="rank" style="ellipse;whiteSpace=wrap;html=1;align=center;" vertex="1" parent="1">
          <mxGeometry x="420" y="70" width="100" height="40" as="geometry" />
        </mxCell>
        <mxCell id="93EdfNO_k3NsiEWzLQrk-11" value="age" style="ellipse;whiteSpace=wrap;html=1;align=center;" vertex="1" parent="1">
          <mxGeometry x="290" width="100" height="40" as="geometry" />
        </mxCell>
        <mxCell id="93EdfNO_k3NsiEWzLQrk-12" value="name&lt;div data--h-bstatus=&quot;0OBSERVED&quot;&gt;&lt;br data--h-bstatus=&quot;0OBSERVED&quot;&gt;&lt;/div&gt;" style="ellipse;whiteSpace=wrap;html=1;align=center;" vertex="1" parent="1">
          <mxGeometry x="170" y="10" width="100" height="40" as="geometry" />
        </mxCell>
        <mxCell id="BjZjs--JgGDPIT5w0Q3s-3" value="" style="endArrow=none;html=1;rounded=0;entryX=0.5;entryY=0;entryDx=0;entryDy=0;exitX=1;exitY=1;exitDx=0;exitDy=0;" edge="1" parent="1" source="93EdfNO_k3NsiEWzLQrk-8" target="93EdfNO_k3NsiEWzLQrk-3">
          <mxGeometry relative="1" as="geometry">
            <mxPoint x="230" y="110" as="sourcePoint" />
            <mxPoint x="390" y="110" as="targetPoint" />
          </mxGeometry>
        </mxCell>
        <mxCell id="BjZjs--JgGDPIT5w0Q3s-4" value="" style="endArrow=none;html=1;rounded=0;entryX=0;entryY=1;entryDx=0;entryDy=0;exitX=1;exitY=0;exitDx=0;exitDy=0;" edge="1" parent="1" source="93EdfNO_k3NsiEWzLQrk-3" target="93EdfNO_k3NsiEWzLQrk-9">
          <mxGeometry relative="1" as="geometry">
            <mxPoint x="370" y="150" as="sourcePoint" />
            <mxPoint x="486" y="186" as="targetPoint" />
          </mxGeometry>
        </mxCell>
        <mxCell id="BjZjs--JgGDPIT5w0Q3s-5" value="" style="endArrow=none;html=1;rounded=0;entryX=0.5;entryY=1;entryDx=0;entryDy=0;exitX=0.75;exitY=0;exitDx=0;exitDy=0;" edge="1" parent="1" source="93EdfNO_k3NsiEWzLQrk-3" target="93EdfNO_k3NsiEWzLQrk-12">
          <mxGeometry relative="1" as="geometry">
            <mxPoint x="410" y="150" as="sourcePoint" />
            <mxPoint x="526" y="186" as="targetPoint" />
          </mxGeometry>
        </mxCell>
        <mxCell id="BjZjs--JgGDPIT5w0Q3s-6" value="" style="endArrow=none;html=1;rounded=0;entryX=0;entryY=1;entryDx=0;entryDy=0;exitX=1;exitY=0;exitDx=0;exitDy=0;" edge="1" parent="1" source="93EdfNO_k3NsiEWzLQrk-3" target="93EdfNO_k3NsiEWzLQrk-10">
          <mxGeometry relative="1" as="geometry">
            <mxPoint x="540" y="180" as="sourcePoint" />
            <mxPoint x="656" y="216" as="targetPoint" />
          </mxGeometry>
        </mxCell>
        <mxCell id="BjZjs--JgGDPIT5w0Q3s-7" value="" style="endArrow=none;html=1;rounded=0;entryX=0.5;entryY=1;entryDx=0;entryDy=0;exitX=0.866;exitY=0.04;exitDx=0;exitDy=0;exitPerimeter=0;" edge="1" parent="1" source="93EdfNO_k3NsiEWzLQrk-3" target="93EdfNO_k3NsiEWzLQrk-11">
          <mxGeometry relative="1" as="geometry">
            <mxPoint x="540" y="180" as="sourcePoint" />
            <mxPoint x="656" y="216" as="targetPoint" />
          </mxGeometry>
        </mxCell>
        <mxCell id="BjZjs--JgGDPIT5w0Q3s-8" value="number" style="ellipse;whiteSpace=wrap;html=1;align=center;fontStyle=4;" vertex="1" parent="1">
          <mxGeometry x="720" y="20" width="100" height="40" as="geometry" />
        </mxCell>
        <mxCell id="BjZjs--JgGDPIT5w0Q3s-9" value="degree program" style="ellipse;whiteSpace=wrap;html=1;align=center;" vertex="1" parent="1">
          <mxGeometry x="595" y="500" width="100" height="40" as="geometry" />
        </mxCell>
        <mxCell id="BjZjs--JgGDPIT5w0Q3s-10" value="age&lt;div&gt;&lt;br&gt;&lt;/div&gt;" style="ellipse;whiteSpace=wrap;html=1;align=center;" vertex="1" parent="1">
          <mxGeometry x="395" y="480" width="100" height="40" as="geometry" />
        </mxCell>
        <mxCell id="BjZjs--JgGDPIT5w0Q3s-11" value="name" style="ellipse;whiteSpace=wrap;html=1;align=center;" vertex="1" parent="1">
          <mxGeometry x="485" y="510" width="100" height="40" as="geometry" />
        </mxCell>
        <mxCell id="BjZjs--JgGDPIT5w0Q3s-12" value="budget" style="ellipse;whiteSpace=wrap;html=1;align=center;" vertex="1" parent="1">
          <mxGeometry x="820" y="250" width="100" height="40" as="geometry" />
        </mxCell>
        <mxCell id="BjZjs--JgGDPIT5w0Q3s-13" value="e_date&lt;div data--h-bstatus=&quot;0OBSERVED&quot;&gt;&lt;br data--h-bstatus=&quot;0OBSERVED&quot;&gt;&lt;/div&gt;" style="ellipse;whiteSpace=wrap;html=1;align=center;" vertex="1" parent="1">
          <mxGeometry x="870" y="170" width="100" height="40" as="geometry" />
        </mxCell>
        <mxCell id="BjZjs--JgGDPIT5w0Q3s-14" value="s_date" style="ellipse;whiteSpace=wrap;html=1;align=center;" vertex="1" parent="1">
          <mxGeometry x="870" y="90" width="100" height="40" as="geometry" />
        </mxCell>
        <mxCell id="BjZjs--JgGDPIT5w0Q3s-15" value="sponsor name&lt;div data--h-bstatus=&quot;0OBSERVED&quot;&gt;&lt;br data--h-bstatus=&quot;0OBSERVED&quot;&gt;&lt;/div&gt;" style="ellipse;whiteSpace=wrap;html=1;align=center;" vertex="1" parent="1">
          <mxGeometry x="850" y="20" width="100" height="40" as="geometry" />
        </mxCell>
        <mxCell id="BjZjs--JgGDPIT5w0Q3s-16" value="SSN" style="ellipse;whiteSpace=wrap;html=1;align=center;fontStyle=4;" vertex="1" parent="1">
          <mxGeometry x="725" y="490" width="100" height="40" as="geometry" />
        </mxCell>
        <mxCell id="BjZjs--JgGDPIT5w0Q3s-28" value="" style="endArrow=none;html=1;rounded=0;entryX=0;entryY=1;entryDx=0;entryDy=0;exitX=1;exitY=0.25;exitDx=0;exitDy=0;" edge="1" parent="1" source="93EdfNO_k3NsiEWzLQrk-5" target="BjZjs--JgGDPIT5w0Q3s-14">
          <mxGeometry relative="1" as="geometry">
            <mxPoint x="430" y="176" as="sourcePoint" />
            <mxPoint x="495" y="150" as="targetPoint" />
          </mxGeometry>
        </mxCell>
        <mxCell id="BjZjs--JgGDPIT5w0Q3s-29" value="" style="endArrow=none;html=1;rounded=0;entryX=0;entryY=1;entryDx=0;entryDy=0;exitX=0.5;exitY=0;exitDx=0;exitDy=0;" edge="1" parent="1" source="93EdfNO_k3NsiEWzLQrk-5" target="BjZjs--JgGDPIT5w0Q3s-15">
          <mxGeometry relative="1" as="geometry">
            <mxPoint x="440" y="166" as="sourcePoint" />
            <mxPoint x="505" y="140" as="targetPoint" />
          </mxGeometry>
        </mxCell>
        <mxCell id="BjZjs--JgGDPIT5w0Q3s-30" value="" style="endArrow=none;html=1;rounded=0;entryX=0;entryY=0.5;entryDx=0;entryDy=0;exitX=1;exitY=0.75;exitDx=0;exitDy=0;" edge="1" parent="1" source="93EdfNO_k3NsiEWzLQrk-4" target="BjZjs--JgGDPIT5w0Q3s-16">
          <mxGeometry relative="1" as="geometry">
            <mxPoint x="655" y="276" as="sourcePoint" />
            <mxPoint x="720" y="250" as="targetPoint" />
          </mxGeometry>
        </mxCell>
        <mxCell id="BjZjs--JgGDPIT5w0Q3s-31" value="" style="endArrow=none;html=1;rounded=0;exitX=0.5;exitY=1;exitDx=0;exitDy=0;entryX=0.25;entryY=0;entryDx=0;entryDy=0;" edge="1" parent="1" source="BjZjs--JgGDPIT5w0Q3s-8" target="93EdfNO_k3NsiEWzLQrk-5">
          <mxGeometry relative="1" as="geometry">
            <mxPoint x="460" y="216" as="sourcePoint" />
            <mxPoint x="480" y="190" as="targetPoint" />
          </mxGeometry>
        </mxCell>
        <mxCell id="BjZjs--JgGDPIT5w0Q3s-32" value="" style="endArrow=none;html=1;rounded=0;entryX=0.345;entryY=0.121;entryDx=0;entryDy=0;exitX=0.5;exitY=1;exitDx=0;exitDy=0;entryPerimeter=0;" edge="1" parent="1" source="93EdfNO_k3NsiEWzLQrk-4" target="BjZjs--JgGDPIT5w0Q3s-9">
          <mxGeometry relative="1" as="geometry">
            <mxPoint x="705" y="286" as="sourcePoint" />
            <mxPoint x="770" y="260" as="targetPoint" />
          </mxGeometry>
        </mxCell>
        <mxCell id="BjZjs--JgGDPIT5w0Q3s-33" value="" style="endArrow=none;html=1;rounded=0;entryX=0.362;entryY=0.056;entryDx=0;entryDy=0;exitX=0.25;exitY=1;exitDx=0;exitDy=0;entryPerimeter=0;" edge="1" parent="1" source="93EdfNO_k3NsiEWzLQrk-4" target="BjZjs--JgGDPIT5w0Q3s-11">
          <mxGeometry relative="1" as="geometry">
            <mxPoint x="705" y="306" as="sourcePoint" />
            <mxPoint x="770" y="280" as="targetPoint" />
          </mxGeometry>
        </mxCell>
        <mxCell id="BjZjs--JgGDPIT5w0Q3s-34" value="" style="endArrow=none;html=1;rounded=0;entryX=0.5;entryY=0;entryDx=0;entryDy=0;exitX=0;exitY=1;exitDx=0;exitDy=0;" edge="1" parent="1" source="93EdfNO_k3NsiEWzLQrk-4" target="BjZjs--JgGDPIT5w0Q3s-10">
          <mxGeometry relative="1" as="geometry">
            <mxPoint x="725" y="346" as="sourcePoint" />
            <mxPoint x="790" y="320" as="targetPoint" />
          </mxGeometry>
        </mxCell>
        <mxCell id="BjZjs--JgGDPIT5w0Q3s-37" value="" style="endArrow=none;html=1;rounded=0;entryX=0.304;entryY=0.14;entryDx=0;entryDy=0;exitX=1;exitY=1;exitDx=0;exitDy=0;entryPerimeter=0;" edge="1" parent="1" source="93EdfNO_k3NsiEWzLQrk-5" target="BjZjs--JgGDPIT5w0Q3s-12">
          <mxGeometry relative="1" as="geometry">
            <mxPoint x="400" y="276" as="sourcePoint" />
            <mxPoint x="465" y="250" as="targetPoint" />
          </mxGeometry>
        </mxCell>
        <mxCell id="BjZjs--JgGDPIT5w0Q3s-38" value="" style="endArrow=none;html=1;rounded=0;entryX=0;entryY=0;entryDx=0;entryDy=0;exitX=1;exitY=0.75;exitDx=0;exitDy=0;" edge="1" parent="1" source="93EdfNO_k3NsiEWzLQrk-5" target="BjZjs--JgGDPIT5w0Q3s-13">
          <mxGeometry relative="1" as="geometry">
            <mxPoint x="410" y="266" as="sourcePoint" />
            <mxPoint x="475" y="240" as="targetPoint" />
          </mxGeometry>
        </mxCell>
        <mxCell id="BjZjs--JgGDPIT5w0Q3s-39" value="Worked on" style="shape=rhombus;perimeter=rhombusPerimeter;whiteSpace=wrap;html=1;align=center;" vertex="1" parent="1">
          <mxGeometry x="500" y="190" width="120" height="60" as="geometry" />
        </mxCell>
        <mxCell id="BjZjs--JgGDPIT5w0Q3s-40" value="Manage" style="shape=rhombus;perimeter=rhombusPerimeter;whiteSpace=wrap;html=1;align=center;" vertex="1" parent="1">
          <mxGeometry x="550" y="70" width="120" height="60" as="geometry" />
        </mxCell>
        <mxCell id="BjZjs--JgGDPIT5w0Q3s-41" value="" style="shape=link;html=1;rounded=0;entryX=1;entryY=0.5;entryDx=0;entryDy=0;exitX=0;exitY=0.25;exitDx=0;exitDy=0;" edge="1" parent="1" source="93EdfNO_k3NsiEWzLQrk-5" target="BjZjs--JgGDPIT5w0Q3s-40">
          <mxGeometry relative="1" as="geometry">
            <mxPoint x="660" y="170" as="sourcePoint" />
            <mxPoint x="570" y="310" as="targetPoint" />
          </mxGeometry>
        </mxCell>
        <mxCell id="BjZjs--JgGDPIT5w0Q3s-42" value="N" style="resizable=0;html=1;whiteSpace=wrap;align=right;verticalAlign=bottom;" connectable="0" vertex="1" parent="BjZjs--JgGDPIT5w0Q3s-41">
          <mxGeometry x="1" relative="1" as="geometry" />
        </mxCell>
        <mxCell id="BjZjs--JgGDPIT5w0Q3s-43" value="" style="endArrow=none;html=1;rounded=0;entryX=0;entryY=0.5;entryDx=0;entryDy=0;exitX=1;exitY=0.25;exitDx=0;exitDy=0;" edge="1" parent="1" source="93EdfNO_k3NsiEWzLQrk-3" target="BjZjs--JgGDPIT5w0Q3s-40">
          <mxGeometry relative="1" as="geometry">
            <mxPoint x="410" y="310" as="sourcePoint" />
            <mxPoint x="570" y="310" as="targetPoint" />
          </mxGeometry>
        </mxCell>
        <mxCell id="BjZjs--JgGDPIT5w0Q3s-44" value="1" style="resizable=0;html=1;whiteSpace=wrap;align=right;verticalAlign=bottom;" connectable="0" vertex="1" parent="BjZjs--JgGDPIT5w0Q3s-43">
          <mxGeometry x="1" relative="1" as="geometry" />
        </mxCell>
        <mxCell id="BjZjs--JgGDPIT5w0Q3s-45" value="" style="shape=link;html=1;rounded=0;entryX=1;entryY=0.5;entryDx=0;entryDy=0;exitX=0;exitY=0.75;exitDx=0;exitDy=0;" edge="1" parent="1" source="93EdfNO_k3NsiEWzLQrk-5" target="BjZjs--JgGDPIT5w0Q3s-39">
          <mxGeometry relative="1" as="geometry">
            <mxPoint x="410" y="310" as="sourcePoint" />
            <mxPoint x="570" y="310" as="targetPoint" />
          </mxGeometry>
        </mxCell>
        <mxCell id="BjZjs--JgGDPIT5w0Q3s-46" value="N" style="resizable=0;html=1;whiteSpace=wrap;align=right;verticalAlign=bottom;" connectable="0" vertex="1" parent="BjZjs--JgGDPIT5w0Q3s-45">
          <mxGeometry x="1" relative="1" as="geometry">
            <mxPoint y="-10" as="offset" />
          </mxGeometry>
        </mxCell>
        <mxCell id="BjZjs--JgGDPIT5w0Q3s-52" value="" style="shape=link;html=1;rounded=0;exitX=0.5;exitY=0;exitDx=0;exitDy=0;entryX=0.5;entryY=1;entryDx=0;entryDy=0;" edge="1" parent="1" source="93EdfNO_k3NsiEWzLQrk-4" target="BjZjs--JgGDPIT5w0Q3s-39">
          <mxGeometry relative="1" as="geometry">
            <mxPoint x="760" y="220" as="sourcePoint" />
            <mxPoint x="650" y="280" as="targetPoint" />
            <Array as="points">
              <mxPoint x="560" y="300" />
            </Array>
          </mxGeometry>
        </mxCell>
        <mxCell id="BjZjs--JgGDPIT5w0Q3s-53" value="N" style="resizable=0;html=1;whiteSpace=wrap;align=right;verticalAlign=bottom;" connectable="0" vertex="1" parent="BjZjs--JgGDPIT5w0Q3s-52">
          <mxGeometry x="1" relative="1" as="geometry">
            <mxPoint x="-10" y="20" as="offset" />
          </mxGeometry>
        </mxCell>
        <mxCell id="BjZjs--JgGDPIT5w0Q3s-54" value="N" style="resizable=0;html=1;whiteSpace=wrap;align=right;verticalAlign=bottom;" connectable="0" vertex="1" parent="1">
          <mxGeometry x="470" y="280" as="geometry">
            <mxPoint x="15" y="-38" as="offset" />
          </mxGeometry>
        </mxCell>
        <mxCell id="BjZjs--JgGDPIT5w0Q3s-55" value="N" style="resizable=0;html=1;whiteSpace=wrap;align=right;verticalAlign=bottom;" connectable="0" vertex="1" parent="1">
          <mxGeometry x="570" y="310" as="geometry">
            <mxPoint x="15" y="-38" as="offset" />
          </mxGeometry>
        </mxCell>
        <mxCell id="BjZjs--JgGDPIT5w0Q3s-56" value="" style="shape=link;html=1;rounded=0;entryX=0;entryY=0.5;entryDx=0;entryDy=0;exitX=1;exitY=1;exitDx=0;exitDy=0;" edge="1" parent="1" source="93EdfNO_k3NsiEWzLQrk-3" target="BjZjs--JgGDPIT5w0Q3s-39">
          <mxGeometry relative="1" as="geometry">
            <mxPoint x="740" y="220" as="sourcePoint" />
            <mxPoint x="640" y="270" as="targetPoint" />
          </mxGeometry>
        </mxCell>
        <mxCell id="BjZjs--JgGDPIT5w0Q3s-57" value="N" style="resizable=0;html=1;whiteSpace=wrap;align=right;verticalAlign=bottom;" connectable="0" vertex="1" parent="BjZjs--JgGDPIT5w0Q3s-56">
          <mxGeometry x="1" relative="1" as="geometry">
            <mxPoint y="-10" as="offset" />
          </mxGeometry>
        </mxCell>
        <mxCell id="BjZjs--JgGDPIT5w0Q3s-58" value="N" style="resizable=0;html=1;whiteSpace=wrap;align=right;verticalAlign=bottom;" connectable="0" vertex="1" parent="1">
          <mxGeometry x="600" y="250" as="geometry">
            <mxPoint x="46" y="-15" as="offset" />
          </mxGeometry>
        </mxCell>
        <mxCell id="BjZjs--JgGDPIT5w0Q3s-59" value="Departmnt" style="whiteSpace=wrap;html=1;align=center;" vertex="1" parent="1">
          <mxGeometry x="140" y="290" width="100" height="40" as="geometry" />
        </mxCell>
        <mxCell id="BjZjs--JgGDPIT5w0Q3s-60" value="number" style="ellipse;whiteSpace=wrap;html=1;align=center;fontStyle=4;" vertex="1" parent="1">
          <mxGeometry x="10" y="290" width="100" height="40" as="geometry" />
        </mxCell>
        <mxCell id="BjZjs--JgGDPIT5w0Q3s-61" value="name" style="ellipse;whiteSpace=wrap;html=1;align=center;" vertex="1" parent="1">
          <mxGeometry x="20" y="380" width="100" height="40" as="geometry" />
        </mxCell>
        <mxCell id="BjZjs--JgGDPIT5w0Q3s-62" style="edgeStyle=orthogonalEdgeStyle;rounded=0;orthogonalLoop=1;jettySize=auto;html=1;exitX=0.5;exitY=1;exitDx=0;exitDy=0;" edge="1" parent="1" source="BjZjs--JgGDPIT5w0Q3s-60" target="BjZjs--JgGDPIT5w0Q3s-60">
          <mxGeometry relative="1" as="geometry" />
        </mxCell>
        <mxCell id="BjZjs--JgGDPIT5w0Q3s-63" value="main office" style="ellipse;whiteSpace=wrap;html=1;align=center;" vertex="1" parent="1">
          <mxGeometry x="140" y="390" width="100" height="40" as="geometry" />
        </mxCell>
        <mxCell id="BjZjs--JgGDPIT5w0Q3s-64" value="" style="endArrow=none;html=1;rounded=0;entryX=0;entryY=0;entryDx=0;entryDy=0;exitX=1;exitY=0;exitDx=0;exitDy=0;" edge="1" parent="1" source="BjZjs--JgGDPIT5w0Q3s-60" target="BjZjs--JgGDPIT5w0Q3s-59">
          <mxGeometry relative="1" as="geometry">
            <mxPoint x="250" y="100" as="sourcePoint" />
            <mxPoint x="355" y="136" as="targetPoint" />
          </mxGeometry>
        </mxCell>
        <mxCell id="BjZjs--JgGDPIT5w0Q3s-65" value="" style="endArrow=none;html=1;rounded=0;entryX=0.25;entryY=1;entryDx=0;entryDy=0;exitX=1;exitY=0;exitDx=0;exitDy=0;" edge="1" parent="1" source="BjZjs--JgGDPIT5w0Q3s-61" target="BjZjs--JgGDPIT5w0Q3s-59">
          <mxGeometry relative="1" as="geometry">
            <mxPoint x="240" y="230" as="sourcePoint" />
            <mxPoint x="345" y="266" as="targetPoint" />
          </mxGeometry>
        </mxCell>
        <mxCell id="BjZjs--JgGDPIT5w0Q3s-66" value="" style="endArrow=none;html=1;rounded=0;entryX=0.5;entryY=1;entryDx=0;entryDy=0;exitX=0.5;exitY=0;exitDx=0;exitDy=0;" edge="1" parent="1" source="BjZjs--JgGDPIT5w0Q3s-63" target="BjZjs--JgGDPIT5w0Q3s-59">
          <mxGeometry relative="1" as="geometry">
            <mxPoint x="240" y="230" as="sourcePoint" />
            <mxPoint x="345" y="266" as="targetPoint" />
          </mxGeometry>
        </mxCell>
        <mxCell id="BjZjs--JgGDPIT5w0Q3s-67" value="run" style="shape=rhombus;perimeter=rhombusPerimeter;whiteSpace=wrap;html=1;align=center;" vertex="1" parent="1">
          <mxGeometry x="100" y="170" width="120" height="60" as="geometry" />
        </mxCell>
        <mxCell id="BjZjs--JgGDPIT5w0Q3s-68" value="work in" style="shape=rhombus;perimeter=rhombusPerimeter;whiteSpace=wrap;html=1;align=center;" vertex="1" parent="1">
          <mxGeometry x="240" y="210" width="120" height="60" as="geometry" />
        </mxCell>
        <mxCell id="BjZjs--JgGDPIT5w0Q3s-69" value="" style="shape=link;html=1;rounded=0;exitX=0.5;exitY=0;exitDx=0;exitDy=0;entryX=0.5;entryY=1;entryDx=0;entryDy=0;" edge="1" parent="1" source="BjZjs--JgGDPIT5w0Q3s-59" target="BjZjs--JgGDPIT5w0Q3s-67">
          <mxGeometry relative="1" as="geometry">
            <mxPoint x="360" y="300" as="sourcePoint" />
            <mxPoint x="520" y="300" as="targetPoint" />
          </mxGeometry>
        </mxCell>
        <mxCell id="BjZjs--JgGDPIT5w0Q3s-70" value="1" style="resizable=0;html=1;whiteSpace=wrap;align=right;verticalAlign=bottom;" connectable="0" vertex="1" parent="BjZjs--JgGDPIT5w0Q3s-69">
          <mxGeometry x="1" relative="1" as="geometry">
            <mxPoint x="-20" y="10" as="offset" />
          </mxGeometry>
        </mxCell>
        <mxCell id="BjZjs--JgGDPIT5w0Q3s-71" value="" style="endArrow=none;html=1;rounded=0;entryX=0.5;entryY=0;entryDx=0;entryDy=0;exitX=0;exitY=0.5;exitDx=0;exitDy=0;" edge="1" parent="1" source="93EdfNO_k3NsiEWzLQrk-3" target="BjZjs--JgGDPIT5w0Q3s-67">
          <mxGeometry relative="1" as="geometry">
            <mxPoint x="360" y="300" as="sourcePoint" />
            <mxPoint x="520" y="300" as="targetPoint" />
          </mxGeometry>
        </mxCell>
        <mxCell id="BjZjs--JgGDPIT5w0Q3s-72" value="1" style="resizable=0;html=1;whiteSpace=wrap;align=right;verticalAlign=bottom;" connectable="0" vertex="1" parent="BjZjs--JgGDPIT5w0Q3s-71">
          <mxGeometry x="1" relative="1" as="geometry">
            <mxPoint x="-10" as="offset" />
          </mxGeometry>
        </mxCell>
        <mxCell id="BjZjs--JgGDPIT5w0Q3s-73" value="" style="shape=link;html=1;rounded=0;entryX=0.5;entryY=0;entryDx=0;entryDy=0;exitX=0.5;exitY=1;exitDx=0;exitDy=0;" edge="1" parent="1" source="93EdfNO_k3NsiEWzLQrk-3" target="BjZjs--JgGDPIT5w0Q3s-68">
          <mxGeometry relative="1" as="geometry">
            <mxPoint x="360" y="300" as="sourcePoint" />
            <mxPoint x="520" y="300" as="targetPoint" />
          </mxGeometry>
        </mxCell>
        <mxCell id="BjZjs--JgGDPIT5w0Q3s-74" value="N" style="resizable=0;html=1;whiteSpace=wrap;align=right;verticalAlign=bottom;" connectable="0" vertex="1" parent="BjZjs--JgGDPIT5w0Q3s-73">
          <mxGeometry x="1" relative="1" as="geometry" />
        </mxCell>
        <mxCell id="BjZjs--JgGDPIT5w0Q3s-77" value="" style="endArrow=none;html=1;rounded=0;exitX=0.5;exitY=0;exitDx=0;exitDy=0;" edge="1" parent="1" source="BjZjs--JgGDPIT5w0Q3s-59" target="BjZjs--JgGDPIT5w0Q3s-68">
          <mxGeometry relative="1" as="geometry">
            <mxPoint x="360" y="300" as="sourcePoint" />
            <mxPoint x="520" y="300" as="targetPoint" />
          </mxGeometry>
        </mxCell>
        <mxCell id="BjZjs--JgGDPIT5w0Q3s-78" value="N" style="resizable=0;html=1;whiteSpace=wrap;align=right;verticalAlign=bottom;" connectable="0" vertex="1" parent="BjZjs--JgGDPIT5w0Q3s-77">
          <mxGeometry x="1" relative="1" as="geometry">
            <mxPoint x="-29" y="16" as="offset" />
          </mxGeometry>
        </mxCell>
        <mxCell id="BjZjs--JgGDPIT5w0Q3s-79" value="working time" style="ellipse;whiteSpace=wrap;html=1;align=center;" vertex="1" parent="1">
          <mxGeometry x="349" y="280" width="100" height="40" as="geometry" />
        </mxCell>
        <mxCell id="BjZjs--JgGDPIT5w0Q3s-81" value="" style="endArrow=none;html=1;rounded=0;entryX=1;entryY=0.5;entryDx=0;entryDy=0;exitX=0.5;exitY=0;exitDx=0;exitDy=0;" edge="1" parent="1" source="BjZjs--JgGDPIT5w0Q3s-79" target="BjZjs--JgGDPIT5w0Q3s-68">
          <mxGeometry relative="1" as="geometry">
            <mxPoint x="380" y="176" as="sourcePoint" />
            <mxPoint x="415" y="90" as="targetPoint" />
          </mxGeometry>
        </mxCell>
        <mxCell id="BjZjs--JgGDPIT5w0Q3s-82" value="Major" style="shape=rhombus;perimeter=rhombusPerimeter;whiteSpace=wrap;html=1;align=center;" vertex="1" parent="1">
          <mxGeometry x="290" y="360" width="120" height="60" as="geometry" />
        </mxCell>
        <mxCell id="BjZjs--JgGDPIT5w0Q3s-83" value="advisor" style="shape=rhombus;perimeter=rhombusPerimeter;whiteSpace=wrap;html=1;align=center;" vertex="1" parent="1">
          <mxGeometry x="760" y="390" width="120" height="60" as="geometry" />
        </mxCell>
        <mxCell id="BjZjs--JgGDPIT5w0Q3s-84" value="" style="endArrow=none;html=1;rounded=0;exitX=1;exitY=0.25;exitDx=0;exitDy=0;entryX=0.5;entryY=0;entryDx=0;entryDy=0;" edge="1" parent="1" source="93EdfNO_k3NsiEWzLQrk-4" target="BjZjs--JgGDPIT5w0Q3s-83">
          <mxGeometry relative="1" as="geometry">
            <mxPoint x="600" y="380" as="sourcePoint" />
            <mxPoint x="760" y="380" as="targetPoint" />
          </mxGeometry>
        </mxCell>
        <mxCell id="BjZjs--JgGDPIT5w0Q3s-85" value="1" style="resizable=0;html=1;whiteSpace=wrap;align=right;verticalAlign=bottom;" connectable="0" vertex="1" parent="BjZjs--JgGDPIT5w0Q3s-84">
          <mxGeometry x="1" relative="1" as="geometry" />
        </mxCell>
        <mxCell id="BjZjs--JgGDPIT5w0Q3s-88" value="" style="endArrow=none;html=1;rounded=0;entryX=0.5;entryY=1;entryDx=0;entryDy=0;exitX=1;exitY=0.5;exitDx=0;exitDy=0;" edge="1" parent="1" source="93EdfNO_k3NsiEWzLQrk-4" target="BjZjs--JgGDPIT5w0Q3s-83">
          <mxGeometry relative="1" as="geometry">
            <mxPoint x="360" y="310" as="sourcePoint" />
            <mxPoint x="520" y="310" as="targetPoint" />
          </mxGeometry>
        </mxCell>
        <mxCell id="BjZjs--JgGDPIT5w0Q3s-89" value="N" style="resizable=0;html=1;whiteSpace=wrap;align=right;verticalAlign=bottom;" connectable="0" vertex="1" parent="BjZjs--JgGDPIT5w0Q3s-88">
          <mxGeometry x="1" relative="1" as="geometry">
            <mxPoint y="20" as="offset" />
          </mxGeometry>
        </mxCell>
        <mxCell id="BjZjs--JgGDPIT5w0Q3s-92" value="" style="shape=link;html=1;rounded=0;entryX=1;entryY=0.5;entryDx=0;entryDy=0;exitX=0;exitY=0.5;exitDx=0;exitDy=0;" edge="1" parent="1" source="93EdfNO_k3NsiEWzLQrk-4" target="BjZjs--JgGDPIT5w0Q3s-82">
          <mxGeometry relative="1" as="geometry">
            <mxPoint x="360" y="310" as="sourcePoint" />
            <mxPoint x="520" y="310" as="targetPoint" />
          </mxGeometry>
        </mxCell>
        <mxCell id="BjZjs--JgGDPIT5w0Q3s-93" value="N" style="resizable=0;html=1;whiteSpace=wrap;align=right;verticalAlign=bottom;" connectable="0" vertex="1" parent="BjZjs--JgGDPIT5w0Q3s-92">
          <mxGeometry x="1" relative="1" as="geometry">
            <mxPoint x="14" as="offset" />
          </mxGeometry>
        </mxCell>
        <mxCell id="BjZjs--JgGDPIT5w0Q3s-94" value="" style="endArrow=none;html=1;rounded=0;entryX=0;entryY=0.5;entryDx=0;entryDy=0;exitX=1;exitY=1;exitDx=0;exitDy=0;" edge="1" parent="1" source="BjZjs--JgGDPIT5w0Q3s-59" target="BjZjs--JgGDPIT5w0Q3s-82">
          <mxGeometry relative="1" as="geometry">
            <mxPoint x="360" y="310" as="sourcePoint" />
            <mxPoint x="520" y="310" as="targetPoint" />
          </mxGeometry>
        </mxCell>
        <mxCell id="BjZjs--JgGDPIT5w0Q3s-95" value="1" style="resizable=0;html=1;whiteSpace=wrap;align=right;verticalAlign=bottom;" connectable="0" vertex="1" parent="BjZjs--JgGDPIT5w0Q3s-94">
          <mxGeometry x="1" relative="1" as="geometry" />
        </mxCell>
      </root>
    </mxGraphModel>
  </diagram>
</mxfile>
